<svg width="212" height="212" viewBox="0 0 212 212" fill="none" xmlns="http://www.w3.org/2000/svg">
    <path d="M63 181C57.4772 181 52.9054 176.485 53.932 171.058C54.6006 167.524 55.6257 164.058 56.9963 160.718C59.6347 154.288 63.5018 148.445 68.3769 143.523C73.252 138.602 79.0395 134.698 85.4091 132.034C91.7787 129.371 98.6056 128 105.5 128C112.394 128 119.221 129.371 125.591 132.034C131.96 134.698 137.748 138.602 142.623 143.523C147.498 148.445 151.365 154.288 154.004 160.718C155.374 164.058 156.399 167.524 157.068 171.058C158.095 176.485 153.523 181 148 181L105.5 181L63 181Z" fill="#54BE80" />
    <path d="M196 20C201.523 20 206.052 24.4882 205.5 29.9834C204.526 39.6908 202.135 49.2217 198.388 58.2683C193.362 70.4009 185.997 81.4248 176.711 90.7107C167.425 99.9965 156.401 107.362 144.268 112.388C132.136 117.413 119.132 120 106 120C92.8678 120 79.8642 117.413 67.7317 112.388C55.5991 107.362 44.5752 99.9965 35.2893 90.7107C26.0035 81.4248 18.6375 70.4009 13.612 58.2683C9.86481 49.2217 7.47359 39.6908 6.49958 29.9834C5.94821 24.4882 10.4772 20 16 20L31 20L56 20L81 20L106 20H131H156H181H196Z" fill="#2D81F7" />
</svg>
    